<svg width="69" height="69" viewBox="0 0 69 69" fill="none" xmlns="http://www.w3.org/2000/svg">
<path d="M2.66663 59.4905C2.66663 61.3495 3.50042 63.1324 4.98458 64.447C6.46874 65.7615 8.48169 66.5 10.5806 66.5C12.6795 66.5 14.6925 65.7615 16.1766 64.447C17.6608 63.1324 18.4946 61.3495 18.4946 59.4905C18.4946 57.6314 17.6608 55.8485 16.1766 54.534C14.6925 53.2195 12.6795 52.481 10.5806 52.481C8.48169 52.481 6.46874 53.2195 4.98458 54.534C3.50042 55.8485 2.66663 57.6314 2.66663 59.4905Z" stroke="white" stroke-width="4" stroke-linecap="round" stroke-linejoin="round"/>
<path d="M47.0537 59.4905C47.0537 61.3495 47.8875 63.1324 49.3717 64.447C50.8558 65.7615 52.8688 66.5 54.9677 66.5C57.0666 66.5 59.0796 65.7615 60.5637 64.447C62.0479 63.1324 62.8817 61.3495 62.8817 59.4905C62.8817 57.6314 62.0479 55.8485 60.5637 54.534C59.0796 53.2195 57.0666 52.481 54.9677 52.481C52.8688 52.481 50.8558 53.2195 49.3717 54.534C47.8875 55.8485 47.0537 57.6314 47.0537 59.4905Z" stroke="white" stroke-width="4" stroke-linecap="round" stroke-linejoin="round"/>
<path d="M54.6236 52.481H10.66V2.5H2.66663" stroke="white" stroke-width="4" stroke-linecap="round" stroke-linejoin="round"/>
<path d="M10.9247 9.81433L66.6666 13.3191L62.6851 37.8524H10.9247" stroke="white" stroke-width="4" stroke-linecap="round" stroke-linejoin="round"/>
</svg>
